<svg
  xmlns="http://www.w3.org/2000/svg"
  xmlns:xlink="http://www.w3.org/1999/xlink"
  viewBox="0 0 24 24"
>
  <g fill="#FFF" fill-rule="nonzero">
    <path
      d="M19.5 10.575V1.5h-3.75V3H18v1.5h-2.25V6H18v4.575c-1.275.3-2.25 1.5-2.25 2.925 0 1.65 1.35 3 3 3s3-1.35 3-3c0-1.425-.975-2.55-2.25-2.925M18.75 15c-.825 0-1.5-.675-1.5-1.5s.675-1.5 1.5-1.5 1.5.675 1.5 1.5-.675 1.5-1.5 1.5"
    />
    <path
      d="m11.25 23.25-4.125-2.4C4.575 19.35 3 16.65 3 13.725V3c0-.825.675-1.5 1.5-1.5h9V3h-9v10.725c0 2.4 1.275 4.65 3.375 5.85L11.25 21.6l3.375-2.025c.825-.525 1.575-1.125 2.1-1.95l1.2.825a8.06 8.06 0 0 1-2.625 2.4z"
    />
  </g>
</svg>
