<svg xmlns="http://www.w3.org/2000/svg" xmlns:xlink="http://www.w3.org/1999/xlink" viewBox="0 0 20 20"><g fill="#FA4D56" fill-rule="nonzero"><path d="M18.75 15v-1.25h-1.313a3.1 3.1 0 0 0-.458-1.096l.932-.93-.884-.885-.931.932A3.1 3.1 0 0 0 15 11.313V10h-1.25v1.313c-.391.08-.763.236-1.096.458l-.93-.932-.885.884.932.931a3.1 3.1 0 0 0-.458 1.096H10V15h1.313c.08.391.236.763.458 1.096l-.932.93.884.885.931-.932c.333.222.705.377 1.096.458v1.313H15v-1.313c.391-.08.763-.236 1.096-.458l.93.932.885-.884-.932-.931c.222-.333.377-.705.458-1.096zm-4.375 1.25a1.875 1.875 0 1 1 0-3.75 1.875 1.875 0 0 1 0 3.75"/><path d="m8.75 16.667-2.021-1.078a5.62 5.62 0 0 1-2.979-4.964V2.5h12.5v6.25h1.25V2.5c0-.69-.56-1.25-1.25-1.25H3.75c-.69 0-1.25.56-1.25 1.25v8.125a6.86 6.86 0 0 0 3.64 6.067l2.61 1.392z"/></g></svg>
